<?xml version="1.0" encoding="UTF-8" standalone="no"?>
<!-- Created with Inkscape (http://www.inkscape.org/) -->

<svg
   xmlns:dc="http://purl.org/dc/elements/1.1/"
   xmlns:cc="http://creativecommons.org/ns#"
   xmlns:rdf="http://www.w3.org/1999/02/22-rdf-syntax-ns#"
   xmlns:svg="http://www.w3.org/2000/svg"
   xmlns="http://www.w3.org/2000/svg"
   xmlns:sodipodi="http://sodipodi.sourceforge.net/DTD/sodipodi-0.dtd"
   xmlns:inkscape="http://www.inkscape.org/namespaces/inkscape"
   version="1.1"
   id="svg2"
   width="196"
   height="196"
   viewBox="0 0 196 196"
   sodipodi:docname="icon.svg"
   inkscape:version="0.92.1 r15371">
  <metadata
     id="metadata8">
    <rdf:RDF>
      <cc:Work
         rdf:about="">
        <dc:format>image/svg+xml</dc:format>
        <dc:type
           rdf:resource="http://purl.org/dc/dcmitype/StillImage" />
        <dc:title />
      </cc:Work>
    </rdf:RDF>
  </metadata>
  <defs
     id="defs6">
    <filter
       inkscape:collect="always"
       style="color-interpolation-filters:sRGB"
       id="filter4526"
       x="-0.050754717"
       width="1.1015094"
       y="-0.073363637"
       height="1.1467273">
      <feGaussianBlur
         inkscape:collect="always"
         stdDeviation="1.3933403"
         id="feGaussianBlur4528" />
    </filter>
  </defs>
  <sodipodi:namedview
     pagecolor="#ffffff"
     bordercolor="#666666"
     borderopacity="1"
     objecttolerance="10"
     gridtolerance="10"
     guidetolerance="10"
     inkscape:pageopacity="0"
     inkscape:pageshadow="2"
     inkscape:window-width="3200"
     inkscape:window-height="1671"
     id="namedview4"
     showgrid="false"
     inkscape:zoom="7.2397959"
     inkscape:cx="34.18605"
     inkscape:cy="98"
     inkscape:window-x="0"
     inkscape:window-y="55"
     inkscape:window-maximized="1"
     inkscape:current-layer="svg2"
     fit-margin-top="0"
     fit-margin-left="0"
     fit-margin-right="0"
     fit-margin-bottom="0" />
  <circle
     style="opacity:1;fill:#0f9d58;fill-opacity:1;stroke:none;stroke-width:0.94488192;stroke-linecap:round;stroke-miterlimit:4;stroke-dasharray:none;stroke-dashoffset:0;stroke-opacity:1"
     id="path819"
     cx="98"
     cy="97.861877"
     r="88" />
  <circle
     id="circle4493"
     style="opacity:1;fill:#ef6c00;fill-opacity:1;stroke:none;stroke-width:0.94488192;stroke-linecap:round;stroke-miterlimit:4;stroke-dasharray:none;stroke-dashoffset:0;stroke-opacity:1"
     cx="98"
     cy="97.861877"
     r="88" />
  <g
     id="g4512"
     transform="matrix(1.1025,0,0,1.1025,-9.7585744,-10.115789)">
    <g
       transform="matrix(2.8575287,0,0,2.8575287,30.204369,64.400284)"
       id="g4740"
       style="fill:#ffffff">
      <path
         inkscape:connector-curvature="0"
         d="M 11.99,2 C 6.47,2 2,6.48 2,12 2,17.52 6.47,22 11.99,22 17.52,22 22,17.52 22,12 22,6.48 17.52,2 11.99,2 Z M 12,20 C 7.58,20 4,16.42 4,12 4,7.58 7.58,4 12,4 c 4.42,0 8,3.58 8,8 0,4.42 -3.58,8 -8,8 z"
         id="path4723" />
      <path
         style="fill:none"
         inkscape:connector-curvature="0"
         d="M 0,0 H 24 V 24 H 0 Z"
         id="path4725" />
      <path
         inkscape:connector-curvature="0"
         d="M 12.5,7 H 11 v 6 l 5.25,3.15 0.75,-1.23 -4.5,-2.67 z"
         id="path4727" />
    </g>
    <g
       transform="translate(31.495416,-11.380548)"
       id="g4553">
      <rect
         ry="8"
         y="74.071175"
         x="53.057083"
         height="72"
         width="72"
         id="rect4540"
         style="opacity:1;fill:none;fill-opacity:1;stroke:#2b279d;stroke-width:3;stroke-linecap:round;stroke-miterlimit:4;stroke-dasharray:none;stroke-dashoffset:0;stroke-opacity:1;filter:url(#filter4526)" />
      <rect
         style="opacity:1;fill:#0f9d58;fill-opacity:1;stroke:none;stroke-width:2;stroke-linecap:round;stroke-miterlimit:4;stroke-dasharray:none;stroke-dashoffset:0;stroke-opacity:1"
         id="rect4542"
         width="72"
         height="72"
         x="52.228325"
         y="73.380547"
         ry="8" />
    </g>
    <g
       transform="matrix(2.8345079,0,0,2.8345079,85.985905,63.847783)"
       id="g4702"
       style="fill:#ffffff">
      <path
         style="fill:none"
         inkscape:connector-curvature="0"
         d="M 0,0 H 24 V 24 H 0 Z"
         id="path4688" />
      <path
         inkscape:connector-curvature="0"
         d="M 9,16.2 4.8,12 3.4,13.4 9,19 21,7 19.6,5.6 Z"
         id="path4690" />
    </g>
  </g>
</svg>
